<?xml version="1.0" standalone="no"?>
<!DOCTYPE svg PUBLIC "-//W3C//DTD SVG 20010904//EN"
 "http://www.w3.org/TR/2001/REC-SVG-20010904/DTD/svg10.dtd">
<svg version="1.0" xmlns="http://www.w3.org/2000/svg"
 width="150.000000pt" height="150.000000pt" viewBox="0 0 150.000000 150.000000"
 preserveAspectRatio="xMidYMid meet">
<metadata>
Created by potrace 1.14, written by Peter Selinger 2001-2017
</metadata>
<g transform="translate(0.000000,150.000000) scale(0.100000,-0.100000)"
fill="#000000" stroke="none">
<path d="M694 1195 c-125 -27 -230 -103 -281 -202 -23 -45 -28 -66 -24 -96 3
-21 10 -38 15 -38 5 0 18 21 27 47 83 217 307 304 512 198 17 -9 54 -40 82
-69 41 -43 58 -54 94 -59 24 -3 46 -8 49 -10 2 -3 14 4 25 15 19 17 20 21 7
29 -8 5 -19 10 -25 11 -55 4 -73 13 -125 63 -56 53 -140 100 -197 109 -16 3
-44 7 -63 10 -19 4 -62 0 -96 -8z"/>
<path d="M1315 1099 c-44 -17 -82 -32 -84 -34 -2 -3 6 -13 18 -22 l22 -18
-287 -335 -287 -335 -54 -3 c-64 -4 -64 -4 17 88 30 35 62 71 70 80 84 98 107
126 118 142 11 15 17 17 28 7 21 -17 25 -8 31 64 l4 65 -66 -26 c-55 -22 -64
-28 -51 -38 22 -15 21 -20 -13 -57 -39 -43 -63 -70 -101 -117 -36 -45 -50 -61
-127 -148 l-56 -63 -109 2 c-148 2 -212 27 -266 104 -56 78 -68 174 -32 253
11 23 19 59 18 79 l-1 37 -29 -35 c-77 -91 -76 -260 2 -366 36 -49 108 -99
165 -114 22 -6 47 -13 55 -16 8 -2 98 -3 200 -3 102 1 199 1 216 0 27 0 40 9
85 62 30 35 56 65 59 68 4 3 111 128 239 278 128 149 238 272 245 272 7 0 17
-5 24 -12 6 -6 13 -10 16 -7 3 4 16 180 13 178 -1 0 -38 -14 -82 -30z"/>
<path d="M152 918 c-16 -16 -16 -180 0 -196 16 -16 180 -16 196 0 16 16 16
180 0 196 -7 7 -44 12 -98 12 -54 0 -91 -5 -98 -12z"/>
</g>
</svg>
